<svg width="20" height="20" viewBox="0 0 20 20" fill="none" xmlns="http://www.w3.org/2000/svg">
<path d="M18.7499 4.37479V8.12479C18.7499 8.29055 18.6841 8.44952 18.5669 8.56673C18.4497 8.68394 18.2907 8.74979 18.1249 8.74979H14.3749C14.2092 8.74979 14.0502 8.68394 13.933 8.56673C13.8158 8.44952 13.7499 8.29055 13.7499 8.12479C13.7499 7.95903 13.8158 7.80005 13.933 7.68284C14.0502 7.56563 14.2092 7.49979 14.3749 7.49979H16.5155L14.4382 5.59666L14.4187 5.57791C13.55 4.70954 12.4447 4.11639 11.2408 3.87256C10.037 3.62872 8.78798 3.74501 7.64984 4.20689C6.5117 4.66878 5.53489 5.45579 4.84144 6.4696C4.14798 7.48341 3.76863 8.67908 3.75076 9.90724C3.73289 11.1354 4.0773 12.3416 4.74097 13.3752C5.40463 14.4087 6.35813 15.2238 7.48235 15.7186C8.60657 16.2134 9.85166 16.366 11.0621 16.1573C12.2725 15.9486 13.3946 15.3878 14.2882 14.5451C14.4087 14.4311 14.5695 14.3697 14.7353 14.3743C14.9011 14.3789 15.0582 14.4492 15.1722 14.5697C15.2861 14.6902 15.3476 14.851 15.343 15.0168C15.3383 15.1826 15.2681 15.3397 15.1476 15.4537C13.7581 16.7714 11.9149 17.5041 9.99992 17.4998H9.8968C8.66847 17.483 7.46308 17.1647 6.38656 16.5729C5.31005 15.9811 4.39538 15.134 3.72294 14.1059C3.0505 13.0779 2.64088 11.9004 2.53008 10.6769C2.41928 9.4535 2.6107 8.22157 3.08751 7.08944C3.56432 5.9573 4.31192 4.95962 5.2646 4.18408C6.21729 3.40853 7.34589 2.87888 8.55121 2.64166C9.75654 2.40443 11.0017 2.46691 12.1772 2.8236C13.3527 3.18029 14.4226 3.82027 15.2929 4.68729L17.4999 6.70291V4.37479C17.4999 4.20903 17.5658 4.05005 17.683 3.93284C17.8002 3.81563 17.9592 3.74979 18.1249 3.74979C18.2907 3.74979 18.4497 3.81563 18.5669 3.93284C18.6841 4.05005 18.7499 4.20903 18.7499 4.37479Z" fill="#262626"/>
</svg>
