<svg width="20" height="20" viewBox="0 0 20 20" fill="none" xmlns="http://www.w3.org/2000/svg">
<path d="M17.5 9.99986C17.5 10.1656 17.4342 10.3246 17.3169 10.4418C17.1997 10.559 17.0408 10.6249 16.875 10.6249H4.6336L9.19219 15.1827C9.25026 15.2407 9.29632 15.3097 9.32775 15.3855C9.35918 15.4614 9.37535 15.5427 9.37535 15.6249C9.37535 15.707 9.35918 15.7883 9.32775 15.8642C9.29632 15.94 9.25026 16.009 9.19219 16.067C9.13412 16.1251 9.06518 16.1712 8.98931 16.2026C8.91344 16.234 8.83213 16.2502 8.75 16.2502C8.66788 16.2502 8.58656 16.234 8.51069 16.2026C8.43482 16.1712 8.36588 16.1251 8.30782 16.067L2.68282 10.442C2.62471 10.384 2.57861 10.3151 2.54715 10.2392C2.5157 10.1633 2.49951 10.082 2.49951 9.99986C2.49951 9.91772 2.5157 9.8364 2.54715 9.76052C2.57861 9.68465 2.62471 9.61572 2.68282 9.55767L8.30782 3.93267C8.42509 3.8154 8.58415 3.74951 8.75 3.74951C8.91586 3.74951 9.07492 3.8154 9.19219 3.93267C9.30947 4.04995 9.37535 4.20901 9.37535 4.37486C9.37535 4.54071 9.30947 4.69977 9.19219 4.81705L4.6336 9.37486H16.875C17.0408 9.37486 17.1997 9.44071 17.3169 9.55792C17.4342 9.67513 17.5 9.8341 17.5 9.99986Z" fill="#262626"/>
</svg>
