<svg width="20" height="20" viewBox="0 0 20 20" fill="none" xmlns="http://www.w3.org/2000/svg">
<path d="M13.125 10.625C13.125 10.7908 13.0592 10.9497 12.9419 11.0669C12.8247 11.1842 12.6658 11.25 12.5 11.25H10.625V13.125C10.625 13.2908 10.5592 13.4497 10.4419 13.5669C10.3247 13.6842 10.1658 13.75 10 13.75C9.83424 13.75 9.67527 13.6842 9.55806 13.5669C9.44085 13.4497 9.375 13.2908 9.375 13.125V11.25H7.5C7.33424 11.25 7.17527 11.1842 7.05806 11.0669C6.94085 10.9497 6.875 10.7908 6.875 10.625C6.875 10.4592 6.94085 10.3003 7.05806 10.1831C7.17527 10.0658 7.33424 10 7.5 10H9.375V8.125C9.375 7.95924 9.44085 7.80027 9.55806 7.68306C9.67527 7.56585 9.83424 7.5 10 7.5C10.1658 7.5 10.3247 7.56585 10.4419 7.68306C10.5592 7.80027 10.625 7.95924 10.625 8.125V10H12.5C12.6658 10 12.8247 10.0658 12.9419 10.1831C13.0592 10.3003 13.125 10.4592 13.125 10.625ZM18.125 6.25V15C18.125 15.4973 17.9275 15.9742 17.5758 16.3258C17.2242 16.6775 16.7473 16.875 16.25 16.875H3.75C3.25272 16.875 2.77581 16.6775 2.42417 16.3258C2.07254 15.9742 1.875 15.4973 1.875 15V6.25C1.875 5.75272 2.07254 5.27581 2.42417 4.92417C2.77581 4.57254 3.25272 4.375 3.75 4.375H5.91563L6.79688 3.05625C6.91083 2.88546 7.06509 2.74536 7.24604 2.64835C7.427 2.55133 7.62906 2.50038 7.83437 2.5H12.1656C12.3709 2.50038 12.573 2.55133 12.754 2.64835C12.9349 2.74536 13.0892 2.88546 13.2031 3.05625L14.0844 4.375H16.25C16.7473 4.375 17.2242 4.57254 17.5758 4.92417C17.9275 5.27581 18.125 5.75272 18.125 6.25ZM16.875 6.25C16.875 6.08424 16.8092 5.92527 16.6919 5.80806C16.5747 5.69085 16.4158 5.625 16.25 5.625H13.75C13.6471 5.62507 13.5457 5.59971 13.455 5.5512C13.3642 5.50268 13.2868 5.43249 13.2297 5.34688L12.1656 3.75H7.83437L6.77031 5.34688C6.71319 5.43249 6.63581 5.50268 6.54504 5.5512C6.45427 5.59971 6.35292 5.62507 6.25 5.625H3.75C3.58424 5.625 3.42527 5.69085 3.30806 5.80806C3.19085 5.92527 3.125 6.08424 3.125 6.25V15C3.125 15.1658 3.19085 15.3247 3.30806 15.4419C3.42527 15.5592 3.58424 15.625 3.75 15.625H16.25C16.4158 15.625 16.5747 15.5592 16.6919 15.4419C16.8092 15.3247 16.875 15.1658 16.875 15V6.25Z" fill="#262626"/>
</svg>
