<svg width="20" height="20" viewBox="0 0 20 20" fill="none" xmlns="http://www.w3.org/2000/svg">
<path d="M17.942 6.06705L7.94205 16.067C7.884 16.1252 7.81507 16.1713 7.7392 16.2027C7.66332 16.2342 7.58199 16.2504 7.49986 16.2504C7.41772 16.2504 7.3364 16.2342 7.26052 16.2027C7.18465 16.1713 7.11572 16.1252 7.05767 16.067L2.68267 11.692C2.5654 11.5748 2.49951 11.4157 2.49951 11.2499C2.49951 11.084 2.5654 10.9249 2.68267 10.8077C2.79995 10.6904 2.95901 10.6245 3.12486 10.6245C3.29071 10.6245 3.44977 10.6904 3.56705 10.8077L7.49986 14.7413L17.0577 5.18267C17.1749 5.0654 17.334 4.99951 17.4999 4.99951C17.6657 4.99951 17.8248 5.0654 17.942 5.18267C18.0593 5.29995 18.1252 5.45901 18.1252 5.62486C18.1252 5.79071 18.0593 5.94977 17.942 6.06705Z" fill="#262626"/>
</svg>
