<svg width="24" height="18" viewBox="0 0 24 18" fill="none" xmlns="http://www.w3.org/2000/svg">
<path d="M22.95 10.1C22.8713 10.1591 22.7816 10.2021 22.6862 10.2265C22.5908 10.251 22.4915 10.2564 22.394 10.2424C22.2965 10.2285 22.2027 10.1955 22.1179 10.1453C22.0332 10.0952 21.9591 10.0288 21.9 9.94999C21.448 9.34236 20.8596 8.84935 20.1822 8.51066C19.5048 8.17197 18.7574 7.99705 18 7.99999C17.8526 7.99997 17.7084 7.95647 17.5855 7.87493C17.4626 7.7934 17.3664 7.67743 17.3091 7.54155C17.2702 7.44927 17.2501 7.35014 17.2501 7.24999C17.2501 7.14983 17.2702 7.0507 17.3091 6.95842C17.3664 6.82254 17.4626 6.70658 17.5855 6.62504C17.7084 6.5435 17.8526 6.5 18 6.49998C18.4209 6.49995 18.8332 6.3819 19.1903 6.15924C19.5474 5.93659 19.8349 5.61825 20.0201 5.2404C20.2054 4.86254 20.2809 4.44031 20.2382 4.02167C20.1955 3.60302 20.0363 3.20474 19.7786 2.87207C19.5209 2.53939 19.175 2.28566 18.7803 2.13969C18.3856 1.99371 17.9579 1.96135 17.5458 2.04628C17.1336 2.13121 16.7535 2.33002 16.4487 2.62013C16.1439 2.91024 15.9265 3.28003 15.8213 3.68748C15.7967 3.7829 15.7535 3.87253 15.6942 3.95126C15.635 4.02998 15.5608 4.09627 15.4759 4.14632C15.391 4.19638 15.2971 4.22923 15.1995 4.24299C15.102 4.25676 15.0026 4.25117 14.9072 4.22655C14.8118 4.20192 14.7222 4.15875 14.6435 4.09949C14.5647 4.04023 14.4984 3.96604 14.4484 3.88116C14.3983 3.79628 14.3655 3.70237 14.3517 3.6048C14.338 3.50723 14.3435 3.4079 14.3682 3.31248C14.5142 2.74747 14.7901 2.22433 15.1738 1.78469C15.5576 1.34505 16.0387 1.00105 16.5788 0.780063C17.119 0.559073 17.7032 0.467192 18.2851 0.511732C18.867 0.556271 19.4304 0.736001 19.9306 1.03662C20.4308 1.33724 20.8539 1.75045 21.1663 2.24338C21.4787 2.7363 21.6718 3.29533 21.7301 3.87599C21.7884 4.45665 21.7104 5.04291 21.5023 5.58812C21.2942 6.13334 20.9617 6.62245 20.5313 7.01655C21.5511 7.45811 22.4377 8.15881 23.1029 9.04905C23.1619 9.12804 23.2049 9.21792 23.2292 9.31353C23.2535 9.40913 23.2587 9.5086 23.2445 9.60622C23.2303 9.70384 23.197 9.79771 23.1465 9.88244C23.0959 9.96716 23.0292 10.0411 22.95 10.1ZM17.8988 15.875C17.9531 15.9603 17.9895 16.0558 18.0059 16.1556C18.0223 16.2554 18.0184 16.3575 17.9943 16.4558C17.9703 16.554 17.9266 16.6464 17.8659 16.7273C17.8052 16.8082 17.7288 16.876 17.6412 16.9267C17.5536 16.9773 17.4567 17.0097 17.3563 17.0219C17.2559 17.0341 17.154 17.0258 17.0569 16.9976C16.9597 16.9695 16.8693 16.9219 16.791 16.8579C16.7127 16.7938 16.6482 16.7146 16.6013 16.625C16.1288 15.825 15.456 15.162 14.6491 14.7014C13.8422 14.2409 12.9291 13.9986 12 13.9986C11.071 13.9986 10.1579 14.2409 9.35102 14.7014C8.54412 15.162 7.87125 15.825 7.39879 16.625C7.3519 16.7146 7.28737 16.7938 7.20908 16.8579C7.13078 16.9219 7.04034 16.9695 6.94319 16.9976C6.84605 17.0258 6.7442 17.0341 6.64379 17.0219C6.54338 17.0097 6.44647 16.9773 6.35889 16.9267C6.27132 16.876 6.19489 16.8082 6.1342 16.7273C6.07352 16.6464 6.02983 16.554 6.00576 16.4558C5.9817 16.3575 5.97775 16.2554 5.99417 16.1556C6.01059 16.0558 6.04703 15.9603 6.10129 15.875C6.82841 14.6257 7.9371 13.6425 9.26442 13.07C8.51754 12.4981 7.96863 11.7066 7.69485 10.8067C7.42108 9.90677 7.4362 8.94367 7.73809 8.05277C8.03998 7.16188 8.61346 6.38798 9.37792 5.83987C10.1424 5.29175 11.0594 4.99698 12 4.99698C12.9407 4.99698 13.8577 5.29175 14.6222 5.83987C15.3866 6.38798 15.9601 7.16188 16.262 8.05277C16.5639 8.94367 16.579 9.90677 16.3052 10.8067C16.0315 11.7066 15.4825 12.4981 14.7357 13.07C16.063 13.6425 17.1717 14.6257 17.8988 15.875ZM12 12.5C12.5934 12.5 13.1734 12.324 13.6668 11.9944C14.1601 11.6648 14.5446 11.1962 14.7717 10.648C14.9987 10.0999 15.0582 9.49666 14.9424 8.91471C14.8266 8.33277 14.5409 7.79822 14.1214 7.37866C13.7018 6.95911 13.1673 6.67338 12.5853 6.55763C12.0034 6.44187 11.4002 6.50128 10.852 6.72835C10.3038 6.95541 9.83528 7.33993 9.50563 7.83327C9.17599 8.32662 9.00004 8.90664 9.00004 9.49998C9.00004 10.2956 9.31611 11.0587 9.87872 11.6213C10.4413 12.1839 11.2044 12.5 12 12.5ZM6.75004 7.24999C6.75004 7.05107 6.67102 6.86031 6.53037 6.71966C6.38972 6.579 6.19895 6.49998 6.00004 6.49998C5.57922 6.49995 5.16685 6.3819 4.80976 6.15924C4.45267 5.93659 4.16518 5.61825 3.97995 5.2404C3.79471 4.86254 3.71915 4.44031 3.76185 4.02167C3.80455 3.60302 3.9638 3.20474 4.22152 2.87207C4.47923 2.53939 4.82507 2.28566 5.21976 2.13969C5.61445 1.99371 6.04216 1.96135 6.45432 2.04628C6.86648 2.13121 7.24656 2.33002 7.55139 2.62013C7.85622 2.91024 8.07359 3.28003 8.17879 3.68748C8.22852 3.88018 8.35276 4.04523 8.52418 4.14632C8.6956 4.24742 8.90016 4.27628 9.09285 4.22655C9.28555 4.17682 9.4506 4.05258 9.55169 3.88116C9.65279 3.70974 9.68164 3.50518 9.63192 3.31248C9.48589 2.74747 9.21002 2.22433 8.82624 1.78469C8.44246 1.34505 7.96137 1.00105 7.42125 0.780063C6.88113 0.559073 6.29688 0.467192 5.715 0.511732C5.13312 0.556271 4.56967 0.736001 4.06947 1.03662C3.56928 1.33724 3.14615 1.75045 2.83375 2.24338C2.52135 2.7363 2.32831 3.29533 2.26998 3.87599C2.21165 4.45665 2.28965 5.04291 2.49777 5.58812C2.70589 6.13334 3.03838 6.62245 3.46879 7.01655C2.44999 7.45852 1.56446 8.15919 0.90004 9.04905C0.780569 9.20818 0.729204 9.40825 0.757247 9.60525C0.785289 9.80225 0.890442 9.98005 1.04957 10.0995C1.2087 10.219 1.40877 10.2704 1.60577 10.2423C1.80278 10.2143 1.98057 10.1091 2.10004 9.94999C2.55209 9.34236 3.14049 8.84935 3.81788 8.51066C4.49526 8.17197 5.24271 7.99705 6.00004 7.99999C6.19895 7.99999 6.38972 7.92097 6.53037 7.78031C6.67102 7.63966 6.75004 7.4489 6.75004 7.24999Z" fill="#1E1E1E"/>
</svg>
