<svg width="248" height="53" viewBox="0 0 248 53" fill="none" xmlns="http://www.w3.org/2000/svg">
<path d="M81.3859 5.26904L58.7678 52.9999H44.2767L54.8208 30.8641L35.9058 52.9999H22.9447L25.0347 30.8641L14.5683 52.9999H0.0882568L22.7064 5.26904H40.4128L37.5135 35.9365L63.674 5.26904H81.3804H81.3859Z" fill="#085259"/>
<path d="M117.303 32.3775L115.014 40.7596C114.836 41.4026 114.592 42.018 114.26 42.5945C113.567 43.8141 112.685 44.9616 111.61 46.0316C110.241 47.4008 108.7 48.6094 106.981 49.6516C105.263 50.6993 103.439 51.5143 101.509 52.1074C99.5803 52.7006 97.6732 52.9944 95.7939 52.9944H76.7958C75.0274 52.9944 73.453 52.7117 72.0893 52.1518C70.7255 51.5919 69.6612 50.7714 68.9072 49.6959C67.2996 47.4397 67.2441 44.7344 68.7465 41.5634L80.499 16.689C81.2474 15.1312 82.3118 13.6566 83.6811 12.2596C85.0503 10.8626 86.5915 9.64302 88.31 8.59527C90.0285 7.54752 91.8358 6.7326 93.7428 6.13943C93.7594 6.13389 93.7816 6.12835 93.7982 6.1228C96.886 5.17484 101.544 5.11647 103.551 7.64438L104.975 9.06818L106.873 10.9666L115.746 25.1763C117.403 27.1776 117.98 29.8607 117.298 32.3665L117.303 32.3775ZM94.3471 43.099C95.794 43.099 97.2298 42.6721 98.6545 41.8129C100.074 40.9591 101.083 39.9114 101.67 38.6807L110.684 19.5773C111.272 18.3466 111.272 17.3044 110.684 16.4451C110.091 15.5914 109.077 15.159 107.624 15.159H100.944C99.4971 15.159 98.0613 15.5858 96.6366 16.4451C95.2119 17.2988 94.2085 18.3466 93.6153 19.5773L84.5182 38.6807C83.925 39.9114 83.9416 40.9536 84.557 41.8129C85.1723 42.6666 86.209 43.099 87.6559 43.099H94.336H94.3471Z" fill="#085259"/>
<path d="M185.224 5.26904L144.573 52.9999H129.2L129.455 50.2835L145.942 48.9918L144.667 47.5172L146.84 46.9407L148.819 46.0703L149.978 45.4328V43.487L149.606 43.7143L145.177 46.4085L144.218 46.9906L139.251 41.2474L169.846 5.26904H185.219H185.224Z" fill="#085259"/>
<path d="M176.127 34.8888C176.875 33.2811 177.94 31.7788 179.309 30.3818C180.678 28.9848 182.208 27.7652 183.899 26.7174C185.59 25.6697 187.403 24.8548 189.332 24.2616C191.267 23.674 193.168 23.3746 195.047 23.3746H239.302L234.635 33.2756H196.5C195.053 33.2756 193.617 33.7025 192.193 34.5562C190.768 35.4099 189.764 36.4466 189.171 37.6717L186.593 43.0989H229.961L225.294 52.9999H167.518L176.133 34.8888H176.127ZM247.912 5.26904L243.244 15.17H185.468L190.136 5.26904H247.912Z" fill="#085259"/>
<path d="M123.286 33.7798C123.286 33.7798 119.721 23.5573 115.907 18.4904C112.093 13.4235 105.773 9.2491 102.697 8.6781C100.634 8.29559 99.0434 9.56509 98.8051 12.2648L98.9825 15.0921C99.11 15.7684 99.2929 16.4947 99.5368 17.2652C99.5701 17.3706 99.6089 17.4814 99.6477 17.5868L100.917 20.414C101.35 21.2234 101.843 22.066 102.375 22.9087L104.288 25.7359C107.381 30.0267 110.957 33.8685 112.26 34.4395C114.122 35.2544 119.067 35.5039 121.34 35.3375C123.613 35.1712 123.286 33.7853 123.286 33.7853V33.7798Z" fill="#085259"/>
<path d="M116.074 1.78746C116.046 1.78191 116.018 1.78191 115.99 1.77637C114.333 2.41943 113.002 3.05141 111.96 3.63904C113.307 3.70002 115.004 4.24329 116.495 6.12259C119.361 9.74814 122.926 15.9903 127.166 17.4705C121.229 5.35757 117.859 2.24204 116.074 1.78746Z" fill="#085259"/>
<path d="M141.841 16.6388C141.281 14.632 139.928 16.0457 139.928 16.0457C139.928 16.0457 134.639 14.8981 130.609 12.1651C126.579 9.43208 126.839 2.13108 126.357 1.09996C126.135 0.62875 124.927 0.407003 123.68 0.301673C121.861 0.151995 120.032 0.379283 118.302 0.95028C117.776 1.12213 117.282 1.29399 116.805 1.47138C119.55 2.75197 123.269 8.19029 127.882 17.6699C127.926 17.681 127.976 17.6921 128.02 17.7032C132.039 18.4627 138.032 17.6921 142.007 19.8874C142.035 18.435 142.001 17.2098 141.841 16.6388Z" fill="#085259"/>
<path d="M145.765 33.2198C145.133 32.6876 144.529 32.1222 143.936 31.5512C143.271 30.9026 142.617 30.2429 141.974 29.5666C141.863 29.4501 141.757 29.3337 141.652 29.2118C141.547 28.5687 141.513 27.9145 141.569 27.2604C141.569 27.2604 141.569 27.2493 141.569 27.2438C143.736 27.654 145.926 28.9845 147.772 32.7652L148.388 32.3051C147.916 31.6953 146.336 28.929 145.754 28.4246C144.629 27.46 143.165 26.5286 141.646 26.3568C141.702 25.6638 141.763 24.86 141.818 24.0174C138.137 22.2656 133.381 21.556 128.996 21.3342C131.125 27.7261 133.819 33.9738 137.012 39.9055C138.281 42.2615 139.85 44.867 142.428 45.8815C143.481 46.2973 144.623 46.4248 145.882 46.2696C147.6 46.0589 149.524 45.305 151.686 44.0133C151.686 44.0078 151.686 44.0022 151.686 43.9967C151.636 42.1451 151.315 39.6227 149.967 38.9686C149.241 38.6193 148.343 38.4031 147.473 38.2756C145.333 37.9652 143.581 36.3908 143.005 34.2897L142.234 31.4569C142.478 31.7009 142.727 31.9448 142.971 32.1832C143.675 32.8706 144.402 33.5414 145.161 34.1678C145.311 34.2897 146.53 35.1989 146.686 35.3209L147.329 34.3895C147.24 34.3175 145.865 33.2919 145.782 33.2143L145.765 33.2198ZM148.931 39.6782L148.892 40.2325C145.477 40.0053 142.317 37.4496 141.38 34.1623L141.913 34.007C142.788 37.0782 145.738 39.462 148.931 39.6782Z" fill="#085259"/>
<path d="M142.218 46.3971C139.468 45.3105 137.832 42.6163 136.519 40.1716C133.281 34.1623 130.554 27.8259 128.408 21.3453L128.491 21.3176C127.294 21.2677 126.124 21.2511 125.021 21.2566C128.791 29.4723 136.596 48.0436 142.484 48.7365C146.73 49.2355 149.036 47.6777 150.4 46.6577C151.043 46.1754 151.47 45.4713 151.614 44.6897C149.086 46.1532 146.852 46.8905 144.878 46.8905C143.936 46.8905 143.055 46.7242 142.218 46.3971Z" fill="#085259"/>
<path d="M140.194 51.2534C139.789 51.0704 139.362 50.8598 138.936 50.6214C136.746 49.3963 127.505 40.3213 125.886 39.4177C124.267 38.5196 117.62 37.7823 115.752 38.3533C113.889 38.9243 115.752 42.1119 115.752 42.1119C116.112 42.7882 116.528 43.4147 116.966 44.0078L117.864 45.1221C118.241 45.5434 118.624 45.9536 119.028 46.3251L120.353 47.4394C120.763 47.7553 121.185 48.0602 121.606 48.3374L123.519 49.4517C123.962 49.679 124.406 49.8952 124.844 50.0892C119.882 50.0892 113.629 50.6436 108.673 51.1924C108.013 51.2645 108.069 52.2512 108.734 52.2512H139.972C140.532 52.2512 140.698 51.4807 140.183 51.2478L140.194 51.2534Z" fill="#085259"/>
</svg>
