<svg width="20" height="20" viewBox="0 0 20 20" fill="none" xmlns="http://www.w3.org/2000/svg">
<path d="M13.7498 8.125C14.2443 8.125 14.7276 7.97838 15.1388 7.70368C15.5499 7.42897 15.8703 7.03853 16.0595 6.58171C16.2488 6.1249 16.2983 5.62223 16.2018 5.13728C16.1053 4.65232 15.8672 4.20687 15.5176 3.85723C15.168 3.5076 14.7225 3.2695 14.2376 3.17304C13.7526 3.07657 13.2499 3.12608 12.7931 3.3153C12.3363 3.50452 11.9459 3.82495 11.6712 4.23608C11.3965 4.6472 11.2498 5.13055 11.2498 5.625C11.2498 6.28804 11.5132 6.92393 11.9821 7.39277C12.4509 7.86161 13.0868 8.125 13.7498 8.125ZM13.7498 4.375C13.9971 4.375 14.2387 4.44831 14.4443 4.58566C14.6499 4.72302 14.8101 4.91824 14.9047 5.14665C14.9993 5.37505 15.024 5.62639 14.9758 5.86886C14.9276 6.11134 14.8085 6.33407 14.6337 6.50888C14.4589 6.6837 14.2362 6.80275 13.9937 6.85098C13.7512 6.89921 13.4999 6.87446 13.2715 6.77985C13.0431 6.68524 12.8479 6.52503 12.7105 6.31946C12.5731 6.1139 12.4998 5.87223 12.4998 5.625C12.4998 5.29348 12.6315 4.97554 12.866 4.74112C13.1004 4.5067 13.4183 4.375 13.7498 4.375ZM17.3561 14.4719C17.4622 14.5989 17.5136 14.7629 17.499 14.9279C17.4844 15.0928 17.4049 15.2452 17.278 15.3516C15.9217 16.4758 14.7108 16.875 13.6061 16.875C12.1545 16.875 10.8858 16.1859 9.7053 15.5469C7.72484 14.4719 6.01468 13.543 3.52796 15.6047C3.46491 15.6579 3.39195 15.698 3.3133 15.7229C3.23465 15.7477 3.15185 15.7568 3.06969 15.7495C2.98753 15.7422 2.90763 15.7187 2.83459 15.6804C2.76155 15.642 2.69682 15.5896 2.64413 15.5262C2.59144 15.4627 2.55183 15.3894 2.52759 15.3106C2.50335 15.2318 2.49496 15.1489 2.5029 15.0668C2.51084 14.9847 2.53495 14.905 2.57385 14.8322C2.61274 14.7595 2.66565 14.6952 2.72952 14.643C5.8678 12.0422 8.22327 13.3203 10.3022 14.4484C12.2826 15.5242 13.9928 16.4523 16.4795 14.3906C16.6068 14.2858 16.7704 14.2355 16.9345 14.2507C17.0987 14.266 17.2502 14.3454 17.3561 14.4719ZM2.72562 11.5172C2.66174 11.5694 2.60884 11.6337 2.56994 11.7064C2.53105 11.7792 2.50693 11.8589 2.499 11.941C2.49106 12.0231 2.49945 12.106 2.52369 12.1848C2.54793 12.2637 2.58753 12.3369 2.64022 12.4004C2.69291 12.4639 2.75764 12.5163 2.83068 12.5546C2.90372 12.5929 2.98362 12.6164 3.06579 12.6237C3.14795 12.631 3.23074 12.622 3.30939 12.5971C3.38805 12.5723 3.461 12.5321 3.52405 12.4789C6.01077 10.418 7.72093 11.3461 9.7014 12.4211C10.8819 13.0617 12.1506 13.7492 13.6022 13.7492C14.7069 13.7492 15.9178 13.35 17.2741 12.2258C17.3379 12.1736 17.3908 12.1093 17.4297 12.0365C17.4686 11.9638 17.4927 11.8841 17.5007 11.802C17.5086 11.7199 17.5002 11.637 17.476 11.5582C17.4517 11.4793 17.4121 11.4061 17.3595 11.3426C17.3068 11.2791 17.242 11.2267 17.169 11.1884C17.096 11.1501 17.016 11.1266 16.9339 11.1193C16.8517 11.112 16.7689 11.121 16.6903 11.1459C16.6116 11.1707 16.5387 11.2109 16.4756 11.2641C16.0238 11.6521 15.516 11.9697 14.9694 12.2063L10.7631 8.00156C10.0102 7.24546 9.11479 6.64611 8.12877 6.23819C7.14275 5.83026 6.08565 5.62185 5.01859 5.625H3.12484C2.95908 5.625 2.8001 5.69085 2.68289 5.80806C2.56568 5.92527 2.49984 6.08424 2.49984 6.25C2.49984 6.41576 2.56568 6.57473 2.68289 6.69194C2.8001 6.80915 2.95908 6.875 3.12484 6.875H5.01859C6.16095 6.87281 7.28571 7.15642 8.29046 7.7L5.97562 10.0133C4.98577 10.1055 3.91155 10.5344 2.72562 11.5172ZM9.87952 8.88672L13.4834 12.4898C12.3897 12.4563 11.3834 11.9125 10.2983 11.3234C9.45843 10.8672 8.57249 10.3859 7.60921 10.1477L9.34827 8.4086C9.53361 8.55856 9.71093 8.71815 9.87952 8.88672Z" fill="#262626"/>
</svg>
