<svg width="20" height="20" viewBox="0 0 20 20" fill="none" xmlns="http://www.w3.org/2000/svg">
<path d="M17.969 2.03523C15.7815 -0.1468 11.8385 0.246951 9.17208 2.91414C6.68848 5.39773 6.17755 8.98992 7.88223 11.2337L5.57286 13.543L5.51973 13.4899C5.40364 13.3737 5.26578 13.2815 5.11403 13.2186C4.96229 13.1557 4.79963 13.1233 4.63536 13.1233C4.47109 13.1233 4.30843 13.1557 4.15668 13.2186C4.00494 13.2815 3.86707 13.3737 3.75098 13.4899L1.61661 15.6251C1.50039 15.7412 1.40819 15.879 1.34528 16.0308C1.28238 16.1825 1.25 16.3452 1.25 16.5095C1.25 16.6737 1.28238 16.8364 1.34528 16.9881C1.40819 17.1399 1.50039 17.2777 1.61661 17.3938L2.60801 18.3852C2.72409 18.5013 2.8619 18.5934 3.01358 18.6563C3.16525 18.7191 3.32782 18.7514 3.492 18.7514C3.65618 18.7514 3.81874 18.7191 3.97042 18.6563C4.12209 18.5934 4.25991 18.5013 4.37598 18.3852L6.51114 16.2501C6.62724 16.134 6.71934 15.9962 6.78218 15.8445C6.84501 15.6928 6.87736 15.5303 6.87736 15.3661C6.87736 15.2019 6.84501 15.0393 6.78218 14.8877C6.71934 14.736 6.62724 14.5982 6.51114 14.4821L6.45723 14.4282L8.76661 12.1188C9.64864 12.7891 10.7385 13.118 11.8916 13.118C13.6666 13.118 15.583 12.3368 17.09 10.829C19.7525 8.16179 20.1471 4.21883 17.969 2.03523ZM3.49239 17.5001L2.5002 16.5087L4.63536 14.3751L5.12989 14.8704L5.6252 15.3649L3.49239 17.5001ZM17.5182 8.12508H15.6299V5.62508H18.1299C18.1207 6.49433 17.9113 7.34977 17.5182 8.12508ZM10.6252 11.6884C10.0783 11.5244 9.58061 11.2272 9.17686 10.8234C8.77311 10.4197 8.47591 9.92201 8.31192 9.37508H10.6252V11.6884ZM8.1252 8.12508C8.13456 7.25556 8.34472 6.39998 8.73926 5.62508H10.6252V8.12508H8.1252ZM11.8752 5.62508H14.3752V8.12508H11.8752V5.62508ZM17.9432 4.37508H15.6299V2.0532C16.1777 2.2175 16.6762 2.51521 17.0806 2.91964C17.4851 3.32406 17.7828 3.82255 17.9471 4.37039L17.9432 4.37508ZM14.3635 1.87508H14.376V4.37508H11.876V2.48133C12.6485 2.08867 13.5009 1.87858 14.3674 1.86726L14.3635 1.87508ZM10.6252 3.28601V4.37039H9.54395C9.70421 4.17054 9.8753 3.97963 10.0565 3.79851C10.2369 3.61782 10.4268 3.44675 10.6252 3.28601ZM11.8752 11.8735V9.37508H14.3752V11.2626C13.6014 11.656 12.7472 11.8656 11.8791 11.8751L11.8752 11.8735ZM15.6252 10.4563V9.37508H16.719C16.5585 9.57473 16.3874 9.76563 16.2065 9.94695C16.0237 10.1272 15.8313 10.2972 15.6299 10.4563H15.6252Z" fill="#262626"/>
</svg>
