<svg xmlns="http://www.w3.org/2000/svg" width="68" height="12" viewBox="0 0 68 12" fill="none">
  <path opacity="0.35" d="M43.5002 3.00016C43.5002 1.80354 44.4703 0.833496 45.6669 0.833496H62.3336C63.5302 0.833496 64.5002 1.80355 64.5002 3.00016V9.00016C64.5002 10.1968 63.5302 11.1668 62.3336 11.1668H45.6669C44.4703 11.1668 43.5002 10.1968 43.5002 9.00016V3.00016Z" stroke="black"/>
  <path opacity="0.4" d="M66.0002 4.00024V8.00024C66.805 7.66147 67.3283 6.87338 67.3283 6.00024C67.3283 5.12711 66.805 4.33902 66.0002 4.00024Z" fill="black"/>
  <path d="M45.0002 3.4335C45.0002 2.82598 45.4927 2.3335 46.1002 2.3335H61.9002C62.5078 2.3335 63.0002 2.82598 63.0002 3.4335V8.56683C63.0002 9.17434 62.5078 9.66683 61.9002 9.66683H46.1002C45.4927 9.66683 45.0002 9.17434 45.0002 8.56683V3.4335Z" fill="black"/>
  <path fill-rule="evenodd" clip-rule="evenodd" d="M30.3307 2.60814C32.5466 2.60823 34.6778 3.45967 36.2837 4.98647C36.4046 5.10435 36.5979 5.10286 36.717 4.98314L37.873 3.81647C37.9333 3.75575 37.967 3.6735 37.9665 3.58792C37.966 3.50234 37.9314 3.42048 37.8704 3.36047C33.6553 -0.679076 27.0055 -0.679076 22.7904 3.36047C22.7293 3.42044 22.6947 3.50227 22.6941 3.58785C22.6935 3.67343 22.7271 3.7557 22.7874 3.81647L23.9437 4.98314C24.0627 5.10304 24.2562 5.10453 24.377 4.98647C25.9832 3.45957 28.1146 2.60813 30.3307 2.60814ZM30.3307 6.4038C31.5482 6.40373 32.7222 6.85626 33.6247 7.67347C33.7468 7.78945 33.939 7.78694 34.058 7.6678L35.2127 6.50114C35.2735 6.43994 35.3072 6.35693 35.3064 6.27066C35.3055 6.1844 35.2701 6.10208 35.208 6.04214C32.4598 3.48576 28.2039 3.48576 25.4557 6.04214C25.3936 6.10208 25.3582 6.18444 25.3574 6.27073C25.3566 6.35702 25.3904 6.44003 25.4514 6.50114L26.6057 7.6678C26.7247 7.78694 26.917 7.78945 27.039 7.67347C27.9409 6.8568 29.114 6.40431 30.3307 6.4038ZM32.6437 8.95762C32.6455 9.04413 32.6115 9.12753 32.5497 9.18814L30.5524 11.2038C30.4938 11.263 30.414 11.2964 30.3307 11.2964C30.2474 11.2964 30.1676 11.263 30.109 11.2038L28.1114 9.18814C28.0497 9.12749 28.0157 9.04406 28.0175 8.95755C28.0194 8.87104 28.0568 8.78913 28.121 8.73114C29.3966 7.65225 31.2648 7.65225 32.5404 8.73114C32.6045 8.78917 32.6419 8.87112 32.6437 8.95762Z" fill="black"/>
  <path fill-rule="evenodd" clip-rule="evenodd" d="M16.667 0.666748H15.667C15.1147 0.666748 14.667 1.11446 14.667 1.66675V10.3334C14.667 10.8857 15.1147 11.3334 15.667 11.3334H16.667C17.2193 11.3334 17.667 10.8857 17.667 10.3334V1.66675C17.667 1.11446 17.2193 0.666748 16.667 0.666748ZM11.0003 3.00008H12.0003C12.5526 3.00008 13.0003 3.4478 13.0003 4.00008V10.3334C13.0003 10.8857 12.5526 11.3334 12.0003 11.3334H11.0003C10.448 11.3334 10.0003 10.8857 10.0003 10.3334V4.00008C10.0003 3.4478 10.448 3.00008 11.0003 3.00008ZM7.33366 5.33341H6.33366C5.78137 5.33341 5.33366 5.78113 5.33366 6.33341V10.3334C5.33366 10.8857 5.78137 11.3334 6.33366 11.3334H7.33366C7.88594 11.3334 8.33366 10.8857 8.33366 10.3334V6.33341C8.33366 5.78113 7.88594 5.33341 7.33366 5.33341ZM2.66699 7.33341H1.66699C1.11471 7.33341 0.666992 7.78113 0.666992 8.33341V10.3334C0.666992 10.8857 1.11471 11.3334 1.66699 11.3334H2.66699C3.21928 11.3334 3.66699 10.8857 3.66699 10.3334V8.33341C3.66699 7.78113 3.21928 7.33341 2.66699 7.33341Z" fill="black"/>
</svg>