<svg width="20" height="20" viewBox="0 0 20 20" fill="none" xmlns="http://www.w3.org/2000/svg">
<path d="M18.0594 13.0179L15.8227 11.8999C15.1984 11.5903 14.6733 11.112 14.3069 10.5192C13.9406 9.92642 13.7477 9.24286 13.75 8.54601V6.24991C13.75 6.08415 13.6842 5.92518 13.5669 5.80797C13.4497 5.69076 13.2908 5.62491 13.125 5.62491C12.1308 5.62388 11.1775 5.22846 10.4745 4.52542C9.77145 3.82238 9.37603 2.86916 9.375 1.87491C9.37489 1.75864 9.34235 1.64471 9.28104 1.54591C9.21973 1.44712 9.13208 1.36739 9.02794 1.31569C8.9238 1.26398 8.8073 1.24235 8.69154 1.25323C8.57578 1.26411 8.46534 1.30706 8.37266 1.37726L2.35391 5.93741L2.33828 5.94991C2.20215 6.06018 2.09071 6.19783 2.0112 6.35394C1.93169 6.51005 1.88588 6.68113 1.87675 6.85608C1.86761 7.03103 1.89535 7.20595 1.95818 7.36949C2.021 7.53303 2.11749 7.68154 2.24141 7.80538L11.125 16.6921C11.1831 16.7501 11.252 16.7961 11.3279 16.8275C11.4038 16.8589 11.4851 16.875 11.5672 16.8749H17.5C17.8315 16.8749 18.1495 16.7432 18.3839 16.5088C18.6183 16.2744 18.75 15.9564 18.75 15.6249V14.1358C18.7507 13.9036 18.6864 13.6758 18.5644 13.4782C18.4423 13.2806 18.2674 13.1212 18.0594 13.0179ZM17.5 15.6249H11.8258L3.125 6.92413L4.13047 6.16163L7.16094 9.1921C7.27821 9.30958 7.43736 9.37566 7.60335 9.37581C7.76935 9.37596 7.92861 9.31015 8.04609 9.19288C8.16358 9.0756 8.22966 8.91646 8.22981 8.75046C8.22995 8.58447 8.16415 8.42521 8.04688 8.30772L5.13594 5.39913L8.26094 3.03116C8.49779 4.02067 9.0302 4.91466 9.78741 5.59428C10.5446 6.27389 11.4907 6.70694 12.5 6.83585V8.54601C12.4969 9.4752 12.7542 10.3867 13.2428 11.1771C13.7313 11.9675 14.4315 12.6052 15.2641 13.0179L17.5 14.1358V15.6249ZM5.53125 14.3749H2.5C2.33424 14.3749 2.17527 14.3091 2.05806 14.1919C1.94085 14.0746 1.875 13.9157 1.875 13.7499C1.875 13.5842 1.94085 13.4252 2.05806 13.308C2.17527 13.1908 2.33424 13.1249 2.5 13.1249H5.53125C5.69701 13.1249 5.85598 13.1908 5.97319 13.308C6.0904 13.4252 6.15625 13.5842 6.15625 13.7499C6.15625 13.9157 6.0904 14.0746 5.97319 14.1919C5.85598 14.3091 5.69701 14.3749 5.53125 14.3749ZM8.65625 16.2499C8.65625 16.4157 8.5904 16.5746 8.47319 16.6919C8.35598 16.8091 8.19701 16.8749 8.03125 16.8749H3.75C3.58424 16.8749 3.42527 16.8091 3.30806 16.6919C3.19085 16.5746 3.125 16.4157 3.125 16.2499C3.125 16.0842 3.19085 15.9252 3.30806 15.808C3.42527 15.6908 3.58424 15.6249 3.75 15.6249H8.03125C8.19701 15.6249 8.35598 15.6908 8.47319 15.808C8.5904 15.9252 8.65625 16.0842 8.65625 16.2499Z" fill="#262626"/>
</svg>
