<svg width="20" height="20" viewBox="0 0 20 20" fill="none" xmlns="http://www.w3.org/2000/svg">
<path d="M11.8751 6.25C12.3696 6.25 12.8529 6.10338 13.2641 5.82868C13.6752 5.55397 13.9956 5.16353 14.1848 4.70671C14.3741 4.24989 14.4236 3.74723 14.3271 3.26228C14.2306 2.77732 13.9925 2.33187 13.6429 1.98223C13.2933 1.6326 12.8478 1.3945 12.3629 1.29804C11.8779 1.20157 11.3752 1.25108 10.9184 1.4403C10.4616 1.62952 10.0712 1.94995 9.79646 2.36108C9.52176 2.7722 9.37514 3.25555 9.37514 3.75C9.37514 4.41304 9.63853 5.04893 10.1074 5.51777C10.5762 5.98661 11.2121 6.25 11.8751 6.25ZM11.8751 2.5C12.1224 2.5 12.364 2.57331 12.5696 2.71066C12.7752 2.84802 12.9354 3.04324 13.03 3.27165C13.1246 3.50005 13.1493 3.75139 13.1011 3.99386C13.0529 4.23634 12.9338 4.45907 12.759 4.63389C12.5842 4.8087 12.3615 4.92775 12.119 4.97598C11.8765 5.02421 11.6252 4.99946 11.3968 4.90485C11.1684 4.81024 10.9732 4.65003 10.8358 4.44446C10.6984 4.2389 10.6251 3.99723 10.6251 3.75C10.6251 3.41848 10.7568 3.10054 10.9913 2.86612C11.2257 2.6317 11.5436 2.5 11.8751 2.5ZM15.6251 11.25V18.125C15.6251 18.2908 15.5593 18.4497 15.4421 18.5669C15.3249 18.6842 15.1659 18.75 15.0001 18.75C14.8344 18.75 14.6754 18.6842 14.5582 18.5669C14.441 18.4497 14.3751 18.2908 14.3751 18.125V11.8484C12.3634 11.6727 11.6915 10.6359 11.0939 9.71094C10.8712 9.36797 10.6595 9.04141 10.3806 8.7586L9.33373 11.1656L12.24 13.2414C12.3206 13.2994 12.3863 13.3758 12.4316 13.4642C12.4768 13.5527 12.5003 13.6507 12.5001 13.75V18.125C12.5001 18.2908 12.4343 18.4497 12.3171 18.5669C12.1999 18.6842 12.0409 18.75 11.8751 18.75C11.7094 18.75 11.5504 18.6842 11.4332 18.5669C11.316 18.4497 11.2501 18.2908 11.2501 18.125V14.0719L8.82279 12.3375L6.19857 18.3742C6.15 18.4859 6.06986 18.581 5.96798 18.6478C5.8661 18.7145 5.74694 18.7501 5.62514 18.75C5.53931 18.7502 5.45441 18.7324 5.37592 18.6977C5.22412 18.6315 5.1048 18.5077 5.04416 18.3536C4.98352 18.1995 4.98651 18.0277 5.05248 17.8758L9.54623 7.53906C9.58035 7.46065 9.63019 7.39007 9.69268 7.33169C9.75517 7.27331 9.82898 7.22837 9.90954 7.19967C9.99009 7.17096 10.0757 7.15909 10.161 7.16479C10.2463 7.17049 10.3296 7.19365 10.4056 7.23281C10.6301 7.35 10.8399 7.49346 11.0306 7.66016C11.5283 8.09141 11.8517 8.59063 12.1369 9.03125C12.7369 9.95625 13.1697 10.625 14.9962 10.625C15.0786 10.6245 15.1603 10.6403 15.2366 10.6715C15.3129 10.7026 15.3822 10.7486 15.4407 10.8067C15.4991 10.8648 15.5455 10.9338 15.5772 11.0099C15.6088 11.086 15.6251 11.1676 15.6251 11.25ZM5.62514 11.875C5.74742 11.8749 5.867 11.839 5.96907 11.7717C6.07114 11.7043 6.1512 11.6085 6.19935 11.4961L8.07435 7.1211C8.13955 6.9688 8.14161 6.79684 8.08008 6.64302C8.01855 6.48921 7.89847 6.36611 7.74623 6.30078L5.55873 5.36328C5.40643 5.29809 5.23448 5.29603 5.08066 5.35756C4.92684 5.41908 4.80374 5.53916 4.73842 5.69141L2.86342 10.0664C2.79822 10.2187 2.79616 10.3907 2.85769 10.5445C2.91922 10.6983 3.0393 10.8214 3.19154 10.8867L5.37904 11.8242C5.45679 11.8576 5.54051 11.8749 5.62514 11.875ZM4.25873 9.98438L5.64076 6.75781L6.67982 7.20313L5.29701 10.4289L4.25873 9.98438Z" fill="#262626"/>
</svg>
