<svg width="20" height="20" viewBox="0 0 20 20" fill="none" xmlns="http://www.w3.org/2000/svg">
<path d="M5.00914 11.5468C5.01126 11.5891 5.00474 11.6314 4.98999 11.6711C4.97524 11.7109 4.95256 11.7472 4.92332 11.7779C4.89409 11.8086 4.85892 11.833 4.81995 11.8497C4.78098 11.8664 4.73903 11.8749 4.69664 11.8749H1.24976C1.1087 11.8751 0.971709 11.8276 0.861072 11.7401C0.750435 11.6525 0.672658 11.5302 0.640389 11.3928C0.620296 11.2988 0.621223 11.2016 0.643102 11.108C0.664981 11.0144 0.707273 10.9268 0.766952 10.8514C1.31837 10.1202 2.04999 9.5444 2.89039 9.18034C2.52143 8.84394 2.23844 8.42402 2.06514 7.95576C1.89183 7.4875 1.83325 6.98453 1.89431 6.48898C1.95536 5.99342 2.13427 5.51971 2.41604 5.10752C2.69782 4.69532 3.07427 4.35665 3.51385 4.11986C3.95343 3.88307 4.44335 3.75506 4.94258 3.74655C5.44181 3.73804 5.93581 3.84927 6.38321 4.07094C6.83061 4.29261 7.21838 4.61825 7.51405 5.0206C7.80971 5.42295 8.00467 5.89028 8.08258 6.38347C8.09264 6.44979 8.08076 6.51758 8.04874 6.57653C8.01673 6.63548 7.96634 6.68236 7.90523 6.71003C7.03835 7.11079 6.30419 7.75116 5.78938 8.55556C5.27457 9.35996 5.00059 10.2948 4.99976 11.2499C4.99976 11.3499 4.99976 11.4483 5.00914 11.5468ZM19.2279 10.8507C18.6778 10.1202 17.9478 9.54478 17.1091 9.18034C17.4781 8.84394 17.7611 8.42402 17.9344 7.95576C18.1077 7.4875 18.1663 6.98453 18.1052 6.48898C18.0442 5.99342 17.8653 5.51971 17.5835 5.10752C17.3017 4.69532 16.9253 4.35665 16.4857 4.11986C16.0461 3.88307 15.5562 3.75506 15.0569 3.74655C14.5577 3.73804 14.0637 3.84927 13.6163 4.07094C13.1689 4.29261 12.7811 4.61825 12.4855 5.0206C12.1898 5.42295 11.9949 5.89028 11.917 6.38347C11.9069 6.44979 11.9188 6.51758 11.9508 6.57653C11.9828 6.63548 12.0332 6.68236 12.0943 6.71003C12.9612 7.11079 13.6953 7.75116 14.2102 8.55556C14.725 9.35996 14.9989 10.2948 14.9998 11.2499C14.9998 11.3499 14.9998 11.4483 14.9904 11.5468C14.9883 11.5891 14.9948 11.6314 15.0095 11.6711C15.0243 11.7109 15.047 11.7472 15.0762 11.7779C15.1054 11.8086 15.1406 11.833 15.1796 11.8497C15.2185 11.8664 15.2605 11.8749 15.3029 11.8749H18.7498C18.8908 11.8751 19.0278 11.8276 19.1385 11.7401C19.2491 11.6525 19.3269 11.5302 19.3591 11.3928C19.3794 11.2987 19.3784 11.2012 19.3564 11.1074C19.3344 11.0137 19.2918 10.926 19.2318 10.8507H19.2279ZM12.2748 14.2241C12.8971 13.7475 13.3544 13.0879 13.5824 12.338C13.8105 11.588 13.7978 10.7855 13.5462 10.0431C13.2946 9.30079 12.8167 8.65594 12.1797 8.19922C11.5427 7.74251 10.7785 7.49689 9.99469 7.49689C9.21085 7.49689 8.44672 7.74251 7.80968 8.19922C7.17265 8.65594 6.69475 9.30079 6.44314 10.0431C6.19153 10.7855 6.17886 11.588 6.40692 12.338C6.63498 13.0879 7.0923 13.7475 7.71461 14.2241C6.61034 14.7026 5.68825 15.522 5.08336 16.5624C5.0285 16.6574 4.99962 16.7652 4.99962 16.8749C4.99963 16.9846 5.02852 17.0924 5.08339 17.1874C5.13827 17.2825 5.21718 17.3613 5.31221 17.4162C5.40725 17.471 5.51504 17.4999 5.62476 17.4999H14.3748C14.4845 17.4999 14.5923 17.471 14.6873 17.4162C14.7823 17.3613 14.8613 17.2825 14.9161 17.1874C14.971 17.0924 14.9999 16.9846 14.9999 16.8749C14.9999 16.7652 14.971 16.6574 14.9162 16.5624C14.31 15.5213 13.3862 14.7018 12.2802 14.2241H12.2748Z" fill="#085259"/>
</svg>
